<svg width="100" height="100" viewBox="0 0 100 100" xmlns="http://www.w3.org/2000/svg">
  <!-- Primary Large Dots (Main Burst Origins) -->
  <circle cx="18" cy="52" r="5" fill="#009CDE" />
  <circle cx="52" cy="18" r="5" fill="#FED100" />
  <circle cx="82" cy="52" r="5" fill="#009E49" />
  
  <!-- Secondary Medium Dots (Secondary Burst Origins) -->
  <circle cx="25" cy="40" r="4" fill="#009CDE" />
  <circle cx="60" cy="25" r="4" fill="#FED100" />
  <circle cx="75" cy="60" r="4" fill="#009E49" />
  
  <!-- Central Medium Dot (Anchor) -->
  <circle cx="50" cy="50" r="4" fill="#FED100" />
  
  <!-- Primary Bursts (Medium and Small Dots) -->
  <!-- Blue Primary Burst -->
  <circle cx="28" cy="50" r="3.5" fill="#009CDE" />
  <circle cx="38" cy="52" r="3" fill="#009CDE" />
  <circle cx="33" cy="47" r="2.5" fill="#009CDE" />
  <circle cx="43" cy="57" r="2" fill="#009CDE" />
  <circle cx="30" cy="54" r="2" fill="#009E49" />
  <circle cx="36" cy="49" r="2" fill="#FED100" />
  
  <!-- Yellow Primary Burst -->
  <circle cx="50" cy="28" r="3.5" fill="#FED100" />
  <circle cx="52" cy="38" r="3" fill="#FED100" />
  <circle cx="48" cy="33" r="2.5" fill="#FED100" />
  <circle cx="54" cy="43" r="2" fill="#FED100" />
  <circle cx="51" cy="30" r="2" fill="#009CDE" />
  <circle cx="53" cy="36" r="2" fill="#009E49" />
  
  <!-- Green Primary Burst -->
  <circle cx="72" cy="54" r="3.5" fill="#009E49" />
  <circle cx="62" cy="52" r="3" fill="#009E49" />
  <circle cx="67" cy="57" r="2.5" fill="#009E49" />
  <circle cx="57" cy="47" r="2" fill="#009E49" />
  <circle cx="70" cy="50" r="2" fill="#009CDE" />
  <circle cx="64" cy="54" r="2" fill="#FED100" />
  
  <!-- Secondary Bursts (Small Dots) -->
  <!-- Secondary Blue Burst -->
  <circle cx="30" cy="38" r="2.5" fill="#009CDE" />
  <circle cx="35" cy="42" r="2" fill="#009CDE" />
  <circle cx="28" cy="35" r="2" fill="#FED100" />
  <circle cx="32" cy="40" r="2" fill="#009E49" />
  
  <!-- Secondary Yellow Burst -->
  <circle cx="62" cy="30" r="2.5" fill="#FED100" />
  <circle cx="58" cy="28" r="2" fill="#FED100" />
  <circle cx="60" cy="33" r="2" fill="#009CDE" />
  <circle cx="64" cy="27" r="2" fill="#009E49" />
  
  <!-- Secondary Green Burst -->
  <circle cx="70" cy="62" r="2.5" fill="#009E49" />
  <circle cx="75" cy="58" r="2" fill="#009E49" />
  <circle cx="72" cy="60" r="2" fill="#FED100" />
  <circle cx="78" cy="63" r="2" fill="#009CDE" />
  
  <!-- Central Mix of Small Dots (Denser) -->
  <circle cx="48" cy="50" r="2" fill="#009CDE" />
  <circle cx="52" cy="52" r="2" fill="#FED100" />
  <circle cx="50" cy="48" r="2" fill="#009E49" />
  <circle cx="51" cy="49" r="2.5" fill="#009CDE" />
  <circle cx="49" cy="51" r="2" fill="#FED100" />
  <circle cx="53" cy="50" r="2.5" fill="#009E49" />
  <circle cx="47" cy="49" r="2" fill="#009E49" />
  <circle cx="54" cy="51" r="2" fill="#009CDE" />
  <circle cx="50" cy="53" r="2" fill="#FED100" />
  
  <!-- Splatter Dots (More for Splash Effect) -->
  <circle cx="23" cy="57" r="1.5" fill="#009CDE" />
  <circle cx="26" cy="47" r="1.5" fill="#009CDE" />
  <circle cx="20" cy="45" r="1.5" fill="#FED100" />
  <circle cx="15" cy="55" r="1.5" fill="#009E49" />
  
  <circle cx="47" cy="23" r="1.5" fill="#FED100" />
  <circle cx="57" cy="26" r="1.5" fill="#FED100" />
  <circle cx="55" cy="20" r="1.5" fill="#009CDE" />
  <circle cx="48" cy="15" r="1.5" fill="#009E49" />
  
  <circle cx="77" cy="57" r="1.5" fill="#009E49" />
  <circle cx="80" cy="47" r="1.5" fill="#009E49" />
  <circle cx="85" cy="50" r="1.5" fill="#FED100" />
  <circle cx="78" cy="55" r="1.5" fill="#009CDE" />
</svg>