<svg width="100" height="100" viewBox="0 0 100 100" xmlns="http://www.w3.org/2000/svg">
  <!-- Blue Burst (from the right) -->
  <circle cx="90" cy="50" r="3" fill="#009CDE" />
  <circle cx="85" cy="50" r="1" fill="#009CDE" />
  <circle cx="80" cy="50" r="1" fill="#009CDE" />
  <circle cx="75" cy="50" r="1" fill="#009CDE" />
  <circle cx="70" cy="50" r="1" fill="#009CDE" />
  <circle cx="65" cy="50" r="1" fill="#009CDE" />
  <circle cx="60" cy="50" r="1" fill="#009CDE" />
  <circle cx="88" cy="48" r="1" fill="#009CDE" />
  <circle cx="86" cy="46" r="1" fill="#009CDE" />
  <circle cx="84" cy="44" r="1" fill="#009CDE" />
  <circle cx="82" cy="42" r="1" fill="#009CDE" />
  <circle cx="80" cy="40" r="1" fill="#009CDE" />
  <circle cx="78" cy="38" r="1" fill="#009CDE" />
  <circle cx="88" cy="52" r="1" fill="#009CDE" />
  <circle cx="86" cy="54" r="1" fill="#009CDE" />
  <circle cx="84" cy="56" r="1" fill="#009CDE" />
  <circle cx="82" cy="58" r="1" fill="#009CDE" />
  <circle cx="80" cy="60" r="1" fill="#009CDE" />
  <circle cx="78" cy="62" r="1" fill="#009CDE" />
  <circle cx="92" cy="48" r="1" fill="#009CDE" />
  <circle cx="94" cy="46" r="1" fill="#009CDE" />
  <circle cx="96" cy="44" r="1" fill="#009CDE" />
  <circle cx="92" cy="52" r="1" fill="#009CDE" />
  <circle cx="94" cy="54" r="1" fill="#009CDE" />
  <circle cx="96" cy="56" r="1" fill="#009CDE" />

  <!-- Yellow Burst (from the top-left) -->
  <circle cx="30" cy="85" r="3" fill="#FED100" />
  <circle cx="35" cy="80" r="1" fill="#FED100" />
  <circle cx="40" cy="75" r="1" fill="#FED100" />
  <circle cx="45" cy="70" r="1" fill="#FED100" />
  <circle cx="50" cy="65" r="1" fill="#FED100" />
  <circle cx="55" cy="60" r="1" fill="#FED100" />
  <circle cx="60" cy="55" r="1" fill="#FED100" />
  <circle cx="32" cy="82" r="1" fill="#FED100" />
  <circle cx="34" cy="79" r="1" fill="#FED100" />
  <circle cx="36" cy="76" r="1" fill="#FED100" />
  <circle cx="38" cy="73" r="1" fill="#FED100" />
  <circle cx="40" cy="70" r="1" fill="#FED100" />
  <circle cx="42" cy="67" r="1" fill="#FED100" />
  <circle cx="28" cy="87" r="1" fill="#FED100" />
  <circle cx="26" cy="89" r="1" fill="#FED100" />
  <circle cx="24" cy="91" r="1" fill="#FED100" />
  <circle cx="32" cy="88" r="1" fill="#FED100" />
  <circle cx="34" cy="91" r="1" fill="#FED100" />
  <circle cx="36" cy="94" r="1" fill="#FED100" />
  <circle cx="28" cy="83" r="1" fill="#FED100" />
  <circle cx="26" cy="81" r="1" fill="#FED100" />
  <circle cx="24" cy="79" r="1" fill="#FED100" />
  <circle cx="32" cy="86" r="1" fill="#FED100" />
  <circle cx="34" cy="89" r="1" fill="#FED100" />
  <circle cx="36" cy="92" r="1" fill="#FED100" />

  <!-- Green Burst (from the bottom-left) -->
  <circle cx="30" cy="15" r="3" fill="#009E49" />
  <circle cx="35" cy="20" r="1" fill="#009E49" />
  <circle cx="40" cy="25" r="1" fill="#009E49" />
  <circle cx="45" cy="30" r="1" fill="#009E49" />
  <circle cx="50" cy="35" r="1" fill="#009E49" />
  <circle cx="55" cy="40" r="1" fill="#009E49" />
  <circle cx="60" cy="45" r="1" fill="#009E49" />
  <circle cx="32" cy="18" r="1" fill="#009E49" />
  <circle cx="34" cy="21" r="1" fill="#009E49" />
  <circle cx="36" cy="24" r="1" fill="#009E49" />
  <circle cx="38" cy="27" r="1" fill="#009E49" />
  <circle cx="40" cy="30" r="1" fill="#009E49" />
  <circle cx="42" cy="33" r="1" fill="#009E49" />
  <circle cx="28" cy="13" r="1" fill="#009E49" />
  <circle cx="26" cy="11" r="1" fill="#009E49" />
  <circle cx="24" cy="9" r="1" fill="#009E49" />
  <circle cx="32" cy="12" r="1" fill="#009E49" />
  <circle cx="34" cy="9" r="1" fill="#009E49" />
  <circle cx="36" cy="6" r="1" fill="#009E49" />
  <circle cx="28" cy="17" r="1" fill="#009E49" />
  <circle cx="26" cy="19" r="1" fill="#009E49" />
  <circle cx="24" cy="21" r="1" fill="#009E49" />
  <circle cx="32" cy="14" r="1" fill="#009E49" />
  <circle cx="34" cy="11" r="1" fill="#009E49" />
  <circle cx="36" cy="8" r="1" fill="#009E49" />
</svg>